<?xml version="1.0" standalone="no"?>
<!DOCTYPE svg PUBLIC "-//W3C//DTD SVG 20010904//EN"
 "http://www.w3.org/TR/2001/REC-SVG-20010904/DTD/svg10.dtd">
<svg version="1.0" xmlns="http://www.w3.org/2000/svg"
 width="260.000000pt" height="260.000000pt" viewBox="0 0 260.000000 260.000000"
 preserveAspectRatio="xMidYMid meet">
<metadata>
Created by potrace 1.11, written by Peter Selinger 2001-2013
</metadata>
<g transform="translate(0.000000,260.000000) scale(0.100000,-0.100000)"
fill="#000000" stroke="none">
<path d="M307 1454 c-4 -4 -7 -124 -7 -266 l0 -258 60 0 59 0 3 103 3 102 30
-102 30 -103 62 0 63 0 0 265 0 266 -57 -3 -58 -3 -4 -95 -3 -95 -32 95 -31
95 -55 3 c-31 2 -59 0 -63 -4z"/>
<path d="M680 1420 l0 -40 70 0 70 0 0 40 0 40 -70 0 -70 0 0 -40z"/>
<path d="M1220 1195 l0 -265 70 0 70 0 1 58 c1 59 4 55 23 -30 6 -27 9 -28 72
-28 47 0 65 3 62 13 -2 6 -16 65 -32 129 l-30 117 26 86 25 85 -58 0 -58 0
-13 -42 -13 -43 -5 90 -5 90 -67 3 -68 3 0 -266z"/>
<path d="M954 1356 c-17 -8 -40 -26 -52 -41 -20 -25 -22 -39 -22 -162 0 -157
11 -192 67 -218 26 -12 53 -16 96 -13 53 4 64 8 92 40 34 36 56 121 37 140 -5
5 -33 8 -63 6 l-54 -3 -5 -49 c-5 -53 -24 -71 -34 -34 -8 32 -6 229 3 253 8
19 8 19 19 -2 7 -12 12 -36 12 -53 l0 -31 63 3 62 3 -3 45 c-1 25 -11 56 -20
70 -39 54 -130 75 -198 46z"/>
<path d="M680 1145 l0 -215 70 0 70 0 0 215 0 215 -70 0 -70 0 0 -215z"/>
<path d="M1097 666 c-20 -7 -44 -19 -52 -26 -38 -32 -45 -153 -12 -204 10 -14
45 -44 79 -67 35 -24 66 -47 71 -53 13 -20 3 -91 -13 -91 -11 0 -16 14 -18 52
l-3 53 -65 0 -64 0 0 -55 c0 -69 19 -107 64 -129 46 -22 141 -21 186 2 49 24
61 54 58 139 -4 85 -19 111 -94 161 -27 18 -57 39 -66 47 -22 18 -25 85 -4 85
16 0 26 -21 26 -56 0 -23 3 -24 65 -24 l65 0 0 43 c0 23 -6 53 -13 66 -27 55
-136 85 -210 57z"/>
<path d="M1380 405 l0 -265 70 0 70 0 2 177 c4 238 22 238 26 1 l2 -178 70 0
70 0 0 168 c0 201 -8 237 -56 259 -28 14 -42 15 -74 7 l-39 -11 -3 51 -3 51
-67 3 -68 3 0 -266z"/>
<path d="M2360 595 c0 -24 -5 -35 -15 -35 -10 0 -15 -11 -15 -35 0 -24 5 -35
15 -35 13 0 15 -24 15 -159 0 -189 1 -191 107 -191 l63 0 0 35 c0 23 -5 35
-14 35 -20 0 -26 33 -26 163 0 110 1 117 20 117 16 0 20 7 20 35 0 28 -4 35
-20 35 -16 0 -20 7 -20 35 l0 35 -65 0 -65 0 0 -35z"/>
<path d="M1815 566 c-64 -28 -70 -44 -73 -201 -3 -118 -1 -149 13 -175 42 -82
214 -81 265 2 17 29 20 50 20 161 0 97 -4 135 -16 158 -29 57 -139 86 -209 55z
m85 -217 c0 -128 -9 -172 -24 -116 -8 29 -8 215 0 244 14 53 24 2 24 -128z"/>
<path d="M2268 564 c-16 -8 -28 -10 -28 -4 0 6 -29 10 -70 10 l-70 0 0 -215 0
-215 70 0 69 0 3 133 3 132 33 10 32 9 0 78 c0 43 -3 78 -7 78 -5 -1 -20 -8
-35 -16z"/>
</g>
</svg>
