<?xml version="1.0" standalone="no"?>
<!DOCTYPE svg PUBLIC "-//W3C//DTD SVG 20010904//EN"
 "http://www.w3.org/TR/2001/REC-SVG-20010904/DTD/svg10.dtd">
<svg version="1.0" xmlns="http://www.w3.org/2000/svg"
 width="260.000000pt" height="260.000000pt" viewBox="0 0 260.000000 260.000000"
 preserveAspectRatio="xMidYMid meet">
<metadata>
Created by potrace 1.11, written by Peter Selinger 2001-2013
</metadata>
<g transform="translate(0.000000,260.000000) scale(0.100000,-0.100000)"
fill="#000000" stroke="none">
<path d="M0 1300 l0 -1300 1300 0 1300 0 0 1300 0 1300 -1300 0 -1300 0 0
-1300z m1182 1073 l3 -177 66 62 c66 61 66 62 84 42 18 -20 18 -22 -27 -68
l-47 -47 55 -75 55 -75 -33 -3 c-34 -4 -40 1 -99 78 -23 30 -28 33 -43 21 -10
-9 -16 -29 -16 -57 0 -42 -1 -44 -30 -44 l-30 0 0 260 0 260 30 0 30 0 2 -177z
m-702 -20 l0 157 40 0 40 0 0 -252 0 -253 -168 168 c-92 92 -171 167 -175 167
-4 0 -7 -70 -7 -155 l0 -155 -35 0 -35 0 0 252 0 253 170 -170 170 -170 0 158z
m260 82 c15 -19 4 -52 -21 -60 -38 -12 -65 35 -37 63 16 16 43 15 58 -3z m293
-137 c22 -11 22 -21 -1 -41 -14 -13 -25 -15 -48 -8 -21 6 -41 4 -62 -4 -59
-25 -70 -89 -23 -136 31 -31 59 -36 92 -18 16 8 25 7 40 -7 26 -23 24 -31 -11
-49 -131 -68 -268 94 -185 218 14 20 27 37 28 37 1 0 20 7 42 15 40 14 93 11
128 -7z m-293 -128 l0 -140 -30 0 -30 0 0 140 0 140 30 0 30 0 0 -140z m680
-407 c0 -135 1 -146 15 -126 18 26 78 45 114 36 14 -3 36 -15 49 -26 20 -19
22 -29 22 -139 l0 -118 -30 0 -30 0 0 91 c0 50 -5 99 -10 110 -16 29 -74 26
-105 -6 -23 -22 -25 -32 -25 -110 l0 -85 -30 0 -30 0 0 260 0 260 30 0 30 0 0
-147z m-197 96 c35 -10 38 -13 32 -37 -9 -38 -18 -44 -49 -32 -51 19 -114 13
-142 -15 -21 -21 -23 -28 -14 -46 7 -11 33 -30 58 -41 149 -64 172 -87 172
-172 0 -41 -5 -53 -33 -81 -19 -19 -52 -38 -78 -45 -53 -15 -144 -7 -192 16
l-35 17 16 34 c11 24 21 32 31 27 83 -34 164 -30 198 10 22 25 22 45 1 73 -5
6 -45 26 -89 43 -96 39 -129 73 -129 134 0 79 58 126 155 126 33 0 77 -5 98
-11z m1137 -129 l0 -60 40 0 c38 0 40 -2 40 -30 0 -28 -2 -30 -40 -30 l-40 0
0 -110 0 -110 -30 0 -30 0 0 110 0 110 -25 0 c-21 0 -25 5 -25 30 0 25 4 30
25 30 24 0 25 3 25 60 l0 60 30 0 30 0 0 -60z m-441 -79 c45 -32 63 -66 63
-119 0 -63 -25 -108 -74 -133 -138 -71 -280 86 -193 214 14 20 27 37 28 37 1
0 20 7 42 15 46 16 99 11 134 -14z m303 -14 c-3 -30 -9 -36 -43 -46 -50 -15
-59 -34 -59 -125 l0 -76 -30 0 -30 0 0 140 0 140 25 0 c20 0 25 -5 25 -25 0
-29 12 -32 31 -8 15 17 70 44 79 38 4 -2 4 -19 2 -38z m-1082 -492 l0 -135 26
16 c54 36 152 14 190 -43 26 -40 26 -133 -2 -170 -42 -57 -125 -79 -184 -48
-17 9 -30 11 -30 5 0 -5 -13 -10 -30 -10 l-30 0 0 260 0 260 30 0 30 0 0 -135z
m-938 3 c19 -51 43 -118 54 -148 10 -30 21 -58 24 -62 3 -4 22 31 42 78 l36
85 -23 69 -24 70 39 0 38 0 36 -92 c20 -51 46 -122 60 -157 21 -57 24 -62 31
-40 4 13 30 84 57 157 l50 132 40 0 c28 0 39 -4 36 -14 -7 -33 -184 -486 -189
-486 -3 0 -27 55 -54 123 -26 67 -51 125 -55 130 -3 4 -21 -28 -40 -70 -19
-43 -45 -103 -58 -133 -17 -40 -26 -50 -32 -40 -8 16 -112 281 -161 413 l-28
77 43 0 43 0 35 -92z m720 -108 c37 -11 102 -73 96 -92 -2 -6 -50 -29 -107
-51 l-103 -41 26 -23 c31 -26 46 -28 92 -11 26 9 36 9 48 -1 25 -21 19 -41
-19 -57 -142 -59 -275 93 -190 219 14 20 27 37 28 37 1 0 20 7 42 15 49 17 42
17 87 5z m663 -457 c85 -45 126 -116 127 -217 0 -103 -41 -173 -126 -212 -43
-20 -67 -24 -153 -24 l-103 0 0 241 0 241 108 -4 c84 -3 116 -8 147 -25z m377
-173 c37 -11 102 -73 96 -92 -2 -6 -50 -29 -107 -51 l-103 -41 26 -23 c31 -26
46 -28 92 -11 26 9 36 9 48 -1 25 -21 19 -41 -19 -57 -142 -59 -275 93 -190
219 14 20 27 37 28 37 1 0 20 7 42 15 49 17 42 17 87 5z m225 -86 l40 -85 41
85 c38 80 43 86 72 86 16 0 30 -5 30 -10 0 -6 -32 -74 -71 -152 l-71 -143 -74
145 c-40 80 -73 148 -73 153 -1 4 14 7 33 7 32 0 34 -3 73 -86z"/>
<path d="M1803 1605 c-60 -25 -71 -89 -24 -136 36 -36 70 -37 110 -3 74 62 3
176 -86 139z"/>
<path d="M1192 974 c-59 -24 -69 -88 -23 -135 18 -17 40 -29 56 -29 37 0 85
50 85 88 0 36 -32 78 -64 84 -13 3 -38 -1 -54 -8z"/>
<path d="M852 974 c-29 -12 -62 -57 -50 -69 2 -3 35 8 72 24 49 20 63 31 54
38 -25 19 -44 21 -76 7z"/>
<path d="M1404 527 c-2 -7 -3 -82 -2 -167 l3 -155 62 1 c82 1 133 33 158 98
47 122 -42 236 -183 236 -18 0 -35 -6 -38 -13z"/>
<path d="M1892 344 c-29 -12 -62 -57 -50 -69 2 -3 35 8 72 24 49 20 63 31 54
38 -25 19 -44 21 -76 7z"/>
</g>
</svg>
